<svg xmlns="http://www.w3.org/2000/svg" viewBox="0 0 31.67 31.92"><defs><style>.cls-1{fill:#fff;}</style></defs><title>Ресурс 2</title><g id="Слой_2" data-name="Слой 2"><g id="Artwork"><path class="cls-1" d="M15.83,30.18a14.08,14.08,0,0,1-3.31-.4,7.73,7.73,0,0,1-2.87.87,15.78,15.78,0,0,0,12.36,0,7.64,7.64,0,0,1-2.94-.86A13.85,13.85,0,0,1,15.83,30.18Z"/><path class="cls-1" d="M30.42,9.72a7.92,7.92,0,0,1-.87,2.9,14.28,14.28,0,0,1,0,6.59,7.89,7.89,0,0,1,.86,3,16.15,16.15,0,0,0,0-12.46Z"/><path class="cls-1" d="M15.83,1.74a14.19,14.19,0,0,1,3.06.34,7.75,7.75,0,0,1,2.86-.92,15.75,15.75,0,0,0-11.86,0,7.71,7.71,0,0,1,2.8.93A14.13,14.13,0,0,1,15.83,1.74Z"/><path class="cls-1" d="M1.72,16a14.42,14.42,0,0,1,.36-3.18A7.8,7.8,0,0,1,1.16,10a16.1,16.1,0,0,0,0,12A7.85,7.85,0,0,1,2.06,19,14.33,14.33,0,0,1,1.72,16Z"/><path class="cls-1" d="M25.79,15.89a7.45,7.45,0,0,0-3.54-14,7.36,7.36,0,0,0-6.47,3.87A7.37,7.37,0,0,0,1.92,9.37,7.43,7.43,0,0,0,5.76,15.9a7.45,7.45,0,0,0,3.54,14A7.36,7.36,0,0,0,15.77,26a7.37,7.37,0,0,0,13.85-3.57A7.46,7.46,0,0,0,25.79,15.89ZM22.25,28a5.57,5.57,0,0,1-5.46-4.55h-2A5.56,5.56,0,1,1,8.37,16.9v-2a5.6,5.6,0,1,1,6.4-6.46h2a5.56,5.56,0,1,1,6.53,6.43v2a5.61,5.61,0,0,1-1,11.11Z"/><path class="cls-1" d="M27.2,9.37a5,5,0,0,0-9.82-.93h1a4,4,0,1,1,5,4.84v1A5,5,0,0,0,27.2,9.37Z"/><path class="cls-1" d="M9.3,4.38a5,5,0,0,0-.92,9.9v-1a4,4,0,1,1,4.84-4.87h1A5,5,0,0,0,9.3,4.38Z"/><path class="cls-1" d="M4.34,22.42a5,5,0,0,0,9.8,1.05h-1a4,4,0,1,1-4.8-5v-1A5,5,0,0,0,4.34,22.42Z"/><path class="cls-1" d="M26.27,22.42a4,4,0,0,1-7.9,1.06h-1a5,5,0,1,0,5.89-5.94v1A4.05,4.05,0,0,1,26.27,22.42Z"/><path class="cls-1" d="M21.92,22.61a.51.51,0,1,0,.51-.53V9.84a.51.51,0,1,0-.51-.51H9.75a.5.5,0,1,0-.51.51h0V22.08h0a.51.51,0,1,0,.5.53Zm-5-3.72a2.21,2.21,0,0,1-.71-.55,1.11,1.11,0,0,1-.18-.27h0v2.05a.69.69,0,0,1,.56.69.7.7,0,1,1-1.41,0,.7.7,0,0,1,.56-.69v-3.2a1,1,0,0,1-.82-.81h-.17a1.47,1.47,0,0,0-1,.33,1.77,1.77,0,0,0-.47.69,1.46,1.46,0,0,1,1.16,1.5,2.05,2.05,0,0,1-.25,1c-.12.23-.26.43-.37.63a1.29,1.29,0,0,0-.19.61.93.93,0,0,0,.36.69,1.71,1.71,0,0,1-.72-.23,1.6,1.6,0,0,1-.73-1.2h0a1.8,1.8,0,0,1-1.66,1.41,1.89,1.89,0,0,1-.51-.08c.64-.62.72-1.24.74-2.43,0-.08,0-.16,0-.24a2.39,2.39,0,0,1,.25-.9,1.5,1.5,0,0,1,.41-.5,1.57,1.57,0,0,1,1-.32l.22,0a1.67,1.67,0,0,1,.56-.76,1.25,1.25,0,0,1,.37-.18v0H11.73a.69.69,0,0,1-.69.57.71.71,0,0,1,0-1.42.69.69,0,0,1,.69.57h3.16a1,1,0,0,1,.82-.8V14.9a1.55,1.55,0,0,0-.41-1.15,2.31,2.31,0,0,0-.57-.41,1.47,1.47,0,0,1-1.57,1.14,1.87,1.87,0,0,1-1-.28c-.22-.13-.42-.27-.62-.37a1.11,1.11,0,0,0-.5-.12.93.93,0,0,0-.71.35,1.3,1.3,0,0,1,.29-.84,1.76,1.76,0,0,1,1.14-.61l.06,0a1.74,1.74,0,0,1-1.49-1.65,2,2,0,0,1,.08-.54,2.36,2.36,0,0,0,1.41.68l1.14.08h.08a2.29,2.29,0,0,1,.84.2,1.41,1.41,0,0,1,.5.39A2,2,0,0,1,14.77,13a2.24,2.24,0,0,1,.67.53,1.6,1.6,0,0,1,.25.41h0V11.78a.69.69,0,0,1-.56-.69.7.7,0,1,1,1.41,0,.7.7,0,0,1-.56.69V15a.9.9,0,0,1,.77.8h.13a1.51,1.51,0,0,0,1.17-.42,1.8,1.8,0,0,0,.36-.57,1.54,1.54,0,0,1-1.17-1.5,2.12,2.12,0,0,1,.31-1.08c.13-.23.26-.43.36-.64a1.18,1.18,0,0,0,.13-.5.83.83,0,0,0-.41-.73,1.69,1.69,0,0,1,.88.32,1.76,1.76,0,0,1,.62,1.13l0,0h0a1.71,1.71,0,0,1,1.64-1.45.83.83,0,0,1,.46.08c-.39.2-.55.8-.61,1.51l-.06.88s0,.08,0,.12a3.43,3.43,0,0,1-.19.93,1.37,1.37,0,0,1-.34.53,1.61,1.61,0,0,1-1.19.38h-.15a2,2,0,0,1-.48.66,1.34,1.34,0,0,1-.44.28v0h2.11a.69.69,0,0,1,.69-.56.71.71,0,0,1,0,1.41.68.68,0,0,1-.69-.57H16.77a1,1,0,0,1-.77.8v.18a1.53,1.53,0,0,0,.33,1.05,2,2,0,0,0,.65.47,1.49,1.49,0,0,1,1.47-1.18,2.07,2.07,0,0,1,.94.24c.23.12.43.25.61.36a1.18,1.18,0,0,0,.58.2.88.88,0,0,0,.76-.37,1.66,1.66,0,0,1-.19.68,1.63,1.63,0,0,1-1.36.8v0A1.73,1.73,0,0,1,21.34,21a1.43,1.43,0,0,1-.11.54,2.35,2.35,0,0,0-1.44-.69l-1.14-.07h-.14a2,2,0,0,1-.77-.2,1.38,1.38,0,0,1-.49-.42A2.11,2.11,0,0,1,16.9,18.89Z"/></g></g></svg>