<svg xmlns="http://www.w3.org/2000/svg" viewBox="0 0 16.14 27.37"><defs><style>.cls-1{fill:#4f5051;}</style></defs><title>icon-area_1</title><g id="Слой_2" data-name="Слой 2"><g id="Artwork"><path class="cls-1" d="M8.07,5.14a42.1,42.1,0,0,1,7,.55c1.17.24,1.31.72.7,1.54-1.48,2-5.09,6.78-6.34,8.53a4.37,4.37,0,0,0-.81,2.63,21.16,21.16,0,0,0,0,3.69A3.77,3.77,0,0,0,9,23.78c1.22.06,4.33.56,4.31,1.79s-2.77,1.8-5.26,1.8-5.24-.61-5.25-1.8,3.08-1.73,4.3-1.79a3.64,3.64,0,0,0,.41-1.7,21.53,21.53,0,0,0,0-3.69,4.38,4.38,0,0,0-.82-2.63C5.44,14,1.83,9.2.36,7.23c-.62-.82-.47-1.3.69-1.54A42.1,42.1,0,0,1,8.07,5.14Z"/><polyline class="cls-1" points="6.44 10.12 13.99 0 14.32 0.3 9.09 7.84"/></g></g></svg>