<svg xmlns="http://www.w3.org/2000/svg" viewBox="0 0 56.97 14.65"><defs><style>.cls-1{fill:#929497;}</style></defs><title>icon-bisiness</title><g id="Слой_2" data-name="Слой 2"><g id="Artwork"><g id="_014WYs" data-name="014WYs"><path class="cls-1" d="M19.47,3.84a2.4,2.4,0,0,0-2-1.13c-1.06-.13-2.12-.3-3.18-.46L9.65,1.51A.63.63,0,0,0,8.93,2L8.79,3c3,.48,31.33,5,35,5.58,2,.3,3.84,1.1,5.82,1.44a11.83,11.83,0,0,1,2.37.74c.47.19,1.26,0,1.15.94,0,.07.28.25.28.25l3.33,1.43a.31.31,0,0,1-.12.6l-3.57,0s-.21,0-.24.06c-.42.88-1.23.58-1.89.57-2.41,0-4.83,0-7.22-.27S8.47,8.81,7,8.54c-.76-.13-.75-.16-.63-1l.12-.79L.38,5.7h0A1.4,1.4,0,0,1,.9,3.45h0l6,.94L7.56.52A.62.62,0,0,1,8.28,0L21.21,2.08A1,1,0,0,1,22,3.24C21.75,4.6,19.47,3.84,19.47,3.84Z"/></g></g></g></svg>