<svg xmlns="http://www.w3.org/2000/svg" viewBox="0 0 28.82 21.63"><defs><style>.cls-1{fill:#9b7f50;}</style></defs><title>icon-photo</title><g id="Слой_2" data-name="Слой 2"><g id="Artwork"><path class="cls-1" d="M20.29,4.59c0-.2,0-.37,0-.54a.67.67,0,0,1,.76-.76H24.8a.65.65,0,0,1,.74.74V4.6c.62,0,1.2,0,1.79,0a1.4,1.4,0,0,1,1.46,1.09,2,2,0,0,1,0,.34V20.19a1.38,1.38,0,0,1-1.44,1.44h-26A1.38,1.38,0,0,1,0,20.21V6A1.36,1.36,0,0,1,1.42,4.6h2a.28.28,0,0,0,.33-.23C4.22,3,4.69,1.65,5.13.28A.34.34,0,0,1,5.51,0h6a.33.33,0,0,1,.38.28c.45,1.37.91,2.73,1.37,4.09.05.15.09.23.28.23h6.75Zm-11.76,2A6.58,6.58,0,0,0,2,13.13a6.65,6.65,0,0,0,6.38,6.53,6.66,6.66,0,0,0,6.73-6.44A6.6,6.6,0,0,0,8.53,6.57Zm14.4,0H20.39a.67.67,0,0,0-.74.75c0,.54,0,1.08,0,1.62s.23.9.89.9H25.3a1.23,1.23,0,0,0,.27,0,.65.65,0,0,0,.62-.7V7.31a.67.67,0,0,0-.75-.74Z"/><path class="cls-1" d="M13.75,13.11A5.25,5.25,0,1,1,8.63,7.85,5.27,5.27,0,0,1,13.75,13.11Z"/></g></g></svg>