<svg xmlns="http://www.w3.org/2000/svg" viewBox="0 0 15.75 25.75"><defs><style>.cls-1{fill:#929497;}</style></defs><title>icon-shop</title><g id="Слой_2" data-name="Слой 2"><g id="Artwork"><path class="cls-1" d="M15.75,5.7,12.1,5C11.77,2.09,10.7.1,9.32,0A1.64,1.64,0,0,0,8.06.49,3.15,3.15,0,0,0,7.61,1,1.58,1.58,0,0,0,7.19,1a1.62,1.62,0,0,0-1.25.49,4.57,4.57,0,0,0-1.12,2l-.9-.18C2.84,3.8,1.74,4.14,0,5L.4,17.64.25,21.4l12.09,4.35,3.23-2.24-.16-3.3ZM6.9,3.85a7.55,7.55,0,0,1,.81-2.46,4.61,4.61,0,0,1,1.72,3ZM8.25.69A1.36,1.36,0,0,1,9.3.28c1.22.08,2.19,2,2.52,4.61L9.73,4.45A5,5,0,0,0,7.86,1.16,2.63,2.63,0,0,1,8.25.69Zm-2.12,1a1.39,1.39,0,0,1,1-.42,1.36,1.36,0,0,1,.29.06A8,8,0,0,0,6.63,3.8L5.09,3.49A4.31,4.31,0,0,1,6.13,1.64Z"/></g></g></svg>