<svg xmlns="http://www.w3.org/2000/svg" viewBox="0 0 44.29 17.75"><defs><style>.cls-1{fill:#9b7f50;}</style></defs><title>icon-rooms</title><g id="Слой_2" data-name="Слой 2"><g id="Artwork"><path class="cls-1" d="M35.28,7.25a7.73,7.73,0,0,1-.77-2A4,4,0,0,1,36.1,1a4.77,4.77,0,0,1,6.36.41A5.5,5.5,0,0,1,44.27,5a5.19,5.19,0,0,1-1,3.49c-.28.4-.29.4,0,.77a5.09,5.09,0,0,1-.15,6.34,5,5,0,0,1-5.16,2,4.61,4.61,0,0,1-3.38-2.71,3.86,3.86,0,0,1,0-2.7,9,9,0,0,1,.66-1.49c0-.06.12-.13,0-.19s-.19,0-.29,0a.11.11,0,0,0-.12.12.67.67,0,0,1-.31.65,1.78,1.78,0,0,1-1,.14c-.11,0-.15-.06-.09-.16a1.66,1.66,0,0,0,.13-.27c.07-.3-.06-.45-.36-.46a.63.63,0,0,0-.68.33,1.14,1.14,0,0,1-2-.15.42.42,0,0,0-.44-.25l-7.47,0-9,0-5.66,0c-.37,0-.37,0-.4.37v.14c0,.49,0,.49.43.57.15,0,.21.09.21.25,0,.59,0,1.18,0,1.77,0,.17-.05.22-.22.2-.47,0-.46,0-.47.42,0,.2.07.25.25.24.36,0,.36,0,.36.35,0,.86,0,1.71,0,2.56,0,.21-.06.29-.28.29a9.91,9.91,0,0,0-1.09,0c-.23,0-.28-.08-.27-.29s0-.56,0-.84-.05-.25-.23-.24l-1.86,0c-.16,0-.23.06-.23.21s0,.55,0,.82-.05.25-.24.25-.65,0-1,0-.23-.07-.23-.24l0-2.73c0-.19.07-.24.24-.21H3c.57.05.48.14.48-.45,0-.15,0-.22-.21-.23-.58,0-.58,0-.59-.62,0-.44,0-.89,0-1.33,0-.18,0-.24.23-.24.56,0,.56,0,.55-.59s0-.57-.59-.58l-1.44,0A1.47,1.47,0,0,1,0,8.56a1.46,1.46,0,0,1,1.59-1.5l9.54,0,5.45,0,11.67,0h1.94a.31.31,0,0,0,.33-.2,1.19,1.19,0,0,1,2.11,0,.5.5,0,0,0,.69.23c.21-.09.27-.27.13-.58s0-.28.2-.27a2.76,2.76,0,0,1,.7.11.69.69,0,0,1,.5.53C34.9,7.21,35,7.26,35.28,7.25Zm2.13,3.22a2.41,2.41,0,0,1,1.68.31,1.15,1.15,0,0,1,.48,1.62,2.35,2.35,0,0,1-1.07,1.09.56.56,0,0,1-.82-.21.63.63,0,0,1,.15-.85c.09-.08.19-.15.27-.23s.11-.3-.1-.37a.64.64,0,0,0-.43,0,1.45,1.45,0,0,0-.92.72,2.1,2.1,0,0,0,.3,2.58,3.33,3.33,0,0,0,4.45-.34,3.15,3.15,0,0,0,.78-2.9A6.44,6.44,0,0,0,41,9.26a.43.43,0,0,1,0-.62A6.92,6.92,0,0,0,42.21,6a3.24,3.24,0,0,0-.87-3.14A3.15,3.15,0,0,0,38,2.18a2.09,2.09,0,0,0-1.22,3.16,1.21,1.21,0,0,0,1,.65c.16,0,.32,0,.39-.18s-.09-.24-.18-.33l-.13-.1a.55.55,0,0,1-.19-.76.57.57,0,0,1,.74-.34,2,2,0,0,1,1.36,1.38,1.09,1.09,0,0,1-.36,1.2,1.83,1.83,0,0,1-1.66.41.45.45,0,0,0-.26,0A2.69,2.69,0,0,1,37.41,10.47Z"/></g></g></svg>