<svg xmlns="http://www.w3.org/2000/svg" viewBox="0 0 24.13 18.75"><defs><style>.cls-1{fill:#739193;}</style></defs><title>icon-hotel</title><g id="Слой_2" data-name="Слой 2"><g id="Artwork"><path class="cls-1" d="M12.06,18.75c2.93,0,8.4-.62,11.31-2.21.56-.3.77-.57.76-1.09.07-1.84-1.57-2.57-2.56-4.44a.93.93,0,0,0-.71-.47,1.83,1.83,0,0,0,.62-.35c.16-4.47-3.19-7-7.73-7.42V2.4s0-.13-.19-.18a9,9,0,0,0-1.06-.13V1.47l-.12.09a.79.79,0,0,0,.52-.34c.24-.26.79-.22.76-.7C13.66.36,13,0,12.06,0s-1.59.36-1.59.52c0,.48.52.44.76.7a.79.79,0,0,0,.52.34l-.12-.09v.62a9,9,0,0,0-1.06.13c-.2,0-.19.18-.19.18v.37c-4.54.4-7.89,2.95-7.74,7.42a2,2,0,0,0,.63.35.93.93,0,0,0-.71.47c-1,1.87-2.63,2.6-2.56,4.44,0,.52.2.79.76,1.09C3.67,18.13,9.14,18.75,12.06,18.75Z"/></g></g></svg>