<svg xmlns="http://www.w3.org/2000/svg" viewBox="0 0 29.02 20.05"><defs><style>.cls-1{fill:#739193;}</style></defs><title>icon-coffe</title><g id="Слой_2" data-name="Слой 2"><g id="Artwork"><g id="khhnPH"><path class="cls-1" d="M21.12.85a9.67,9.67,0,0,1,2.2.8,2.72,2.72,0,0,1,1,.8c.33.45.3.7-.14,1a2.79,2.79,0,0,0-.75.82.48.48,0,0,0-.05.52A4.16,4.16,0,0,1,24.74,4a3.24,3.24,0,0,1,3.12.19.12.12,0,0,0,.19,0c.16-.19.3-.08.44,0A1.87,1.87,0,0,1,29,5V6.13C28.29,8,26.7,8.65,24.9,9a7.37,7.37,0,0,0-1.46.34,1.15,1.15,0,0,0-.48.3c-.17.2-.25.38,0,.6a.78.78,0,0,1,.22.7.71.71,0,0,1-.45.66.79.79,0,0,1-.83-.14,4.62,4.62,0,0,1-.48-.64c-.1.18-.2.34-.28.5a7,7,0,0,1-.66,1c-.08.11-.26.2-.19.34s.23.09.35.11a25.76,25.76,0,0,1,2.92.48,9.83,9.83,0,0,1,2.53.81,2.64,2.64,0,0,1,.46.27.75.75,0,0,1,0,1.37c-.38.24-.79.43-1.18.64a30,30,0,0,1-5.52,2.24c-.43.13-.89.19-1.1.68-.07.14-.26.15-.41.2a15.88,15.88,0,0,1-3.22.5,24.5,24.5,0,0,1-6.4-.36,5.68,5.68,0,0,1-1-.31c-.17-.07-.36-.15-.42-.32-.15-.43-.52-.54-.88-.66a36.06,36.06,0,0,1-4-1.62,12.52,12.52,0,0,1-2-1.28.69.69,0,0,1,0-1.19,3.6,3.6,0,0,1,1.29-.66,21.93,21.93,0,0,1,4.22-.85c.29,0,.35-.11.16-.34a10.19,10.19,0,0,1-1.75-4q-.39-1.53-.75-3.06A3.93,3.93,0,0,0,2.18,3.15c-.42-.34-.4-.71,0-1A7.87,7.87,0,0,1,4.94.87,23.36,23.36,0,0,1,10.57,0a44.11,44.11,0,0,1,8.67.42Zm1,7.73a3.56,3.56,0,0,1,2.09-.66,4.45,4.45,0,0,0,2.07-.76A1.65,1.65,0,0,0,27.13,6,1,1,0,0,0,26,4.78a1.2,1.2,0,0,0-1.07.7,1.67,1.67,0,0,1-.89.9.6.6,0,0,0-.34.39c-.18.58-.47.72-1,.49-.17-.07-.24,0-.27.13C22.34,7.75,22.26,8.11,22.16,8.58Z"/></g></g></g></svg>