<svg xmlns="http://www.w3.org/2000/svg" viewBox="0 0 53.48 15.37"><defs><style>.cls-1{fill:#6e3d50;}</style></defs><title>icon-restaurant</title><g id="Слой_2" data-name="Слой 2"><g id="Artwork"><path class="cls-1" d="M2.53,2.44C6.71,4,13.1,5.84,23.64,5.84c.74,0,1-.12,1.21-.64,2.61-5.95,15.95-1.82,23-1.82,3.91,0,5.64-.8,5.64-1.79S50.75,0,48,0C40.43,0,25,1,2.89.05.36-.12.09.19,0,.58S-.07,1.45,2.53,2.44Z"/><path class="cls-1" d="M53.4,11.18c-.33-.58-1.33-1.42-4.79-1.36-7.2.12-18.3,2-25,.53-1.84-.39-2.74-.62-3.43-2-.39-.74-.72-.85-3.91-.68-2.72.15-6.55.39-10.53,1l-.11,0a.09.09,0,0,0-.08.09v0a.09.09,0,0,0,.08.09h.11c.26,0,6.77,0,9.81,0,.29,0,.62.1.62.48a.51.51,0,0,1-.55.53c-3,.12-8.74.36-9.88.44h-.1a.11.11,0,0,0-.09.1v0a.09.09,0,0,0,.09.09h.1c1.15.08,7.08.32,10.09.44.27,0,.49.14.49.45s-.29.42-.53.42h0c-3,.12-8.91.35-10,.44h-.1a.09.09,0,0,0-.09.09v0a.1.1,0,0,0,.09.09h.1c1.13.09,6.8.32,9.83.44.32,0,.6.16.6.53s-.31.48-.6.49c-3,0-9.56,0-9.83,0H5.6a.11.11,0,0,0-.08.1v.05a.1.1,0,0,0,.08.09h.11c4,.59,7.81.83,10.53,1,3.19.17,3.52.07,3.91-.67.66-1.42,1.65-1.63,3.43-2,6.83-1.45,17.83.41,25,.53,3.46.06,4.46-.78,4.79-1.37a.61.61,0,0,0,.08-.3A.67.67,0,0,0,53.4,11.18Z"/></g></g></svg>