<svg xmlns="http://www.w3.org/2000/svg" viewBox="0 0 157.7 22.6"><defs><style>.cls-1{fill:#7C3A50;} .cls-2{fill:#939598;} .cls-3{fill:#939598;}</style></defs><title>Ресурс 1</title><g id="Слой_2" data-name="Слой 2"><g id="Artwork"><path class="cls-1" d="M11.21,21.37a10,10,0,0,1-2.35-.28,5.46,5.46,0,0,1-2,.62,11.17,11.17,0,0,0,8.75,0,5.41,5.41,0,0,1-2.08-.61A9.8,9.8,0,0,1,11.21,21.37Z"/><path class="cls-1" d="M21.54,6.88a5.6,5.6,0,0,1-.61,2.05,10.1,10.1,0,0,1,0,4.67,5.58,5.58,0,0,1,.61,2.1,11.44,11.44,0,0,0,0-8.82Z"/><path class="cls-1" d="M11.21,1.23a10,10,0,0,1,2.17.24,5.48,5.48,0,0,1,2-.65A11.15,11.15,0,0,0,7,.83a5.47,5.47,0,0,1,2,.66A10,10,0,0,1,11.21,1.23Z"/><path class="cls-1" d="M1.22,11.3a10.22,10.22,0,0,1,.25-2.25,5.52,5.52,0,0,1-.65-2,11.4,11.4,0,0,0,0,8.47,5.58,5.58,0,0,1,.65-2A10.18,10.18,0,0,1,1.22,11.3Z"/><path class="cls-1" d="M18.26,11.25a5.27,5.27,0,0,0-2.51-9.88,5.21,5.21,0,0,0-4.58,2.74A5.22,5.22,0,0,0,1.36,6.64a5.26,5.26,0,0,0,2.72,4.62,5.27,5.27,0,0,0,2.51,9.89,5.21,5.21,0,0,0,4.58-2.74A5.22,5.22,0,0,0,21,15.88,5.28,5.28,0,0,0,18.26,11.25Zm-2.51,8.59a4,4,0,0,1-3.87-3.22H10.45A3.94,3.94,0,1,1,5.93,12V10.55A4,4,0,1,1,10.46,6h1.41a3.94,3.94,0,1,1,4.62,4.55V12a4,4,0,0,1-.74,7.87Z"/><path class="cls-1" d="M19.26,6.64a3.51,3.51,0,0,0-7-.66H13A2.85,2.85,0,1,1,16.49,9.4v.69A3.53,3.53,0,0,0,19.26,6.64Z"/><path class="cls-1" d="M6.58,3.1a3.54,3.54,0,0,0-.65,7V9.43A2.87,2.87,0,1,1,9.36,6H10A3.51,3.51,0,0,0,6.58,3.1Z"/><path class="cls-1" d="M3.08,15.88a3.51,3.51,0,0,0,6.94.75H9.33a2.85,2.85,0,1,1-3.4-3.54V12.4A3.52,3.52,0,0,0,3.08,15.88Z"/><path class="cls-1" d="M18.6,15.88a2.84,2.84,0,0,1-5.6.75h-.68a3.51,3.51,0,1,0,4.17-4.2v.69A2.87,2.87,0,0,1,18.6,15.88Z"/><path class="cls-1" d="M15.52,16a.36.36,0,1,0,.36-.38V7a.36.36,0,1,0-.36-.36H6.91A.36.36,0,1,0,6.55,7h0v8.66h0a.36.36,0,1,0,.36.38ZM12,13.37a1.52,1.52,0,0,1-.5-.39.76.76,0,0,1-.12-.19h0v1.45a.49.49,0,0,1,.4.49.5.5,0,1,1-1,0,.49.49,0,0,1,.4-.49V12a.7.7,0,0,1-.58-.57h-.12a1,1,0,0,0-.72.23,1.25,1.25,0,0,0-.33.49,1,1,0,0,1,.82,1.06,1.44,1.44,0,0,1-.17.68c-.08.16-.18.31-.26.45a.91.91,0,0,0-.13.43.65.65,0,0,0,.25.48,1.2,1.2,0,0,1-.51-.16,1.13,1.13,0,0,1-.51-.85h0a1.27,1.27,0,0,1-1.17,1,1.39,1.39,0,0,1-.36-.06c.45-.44.51-.88.53-1.72,0-.06,0-.12,0-.17A1.67,1.67,0,0,1,8,12.65a1.07,1.07,0,0,1,.29-.35A1.11,1.11,0,0,1,9,12.07l.16,0a1.2,1.2,0,0,1,.4-.54.92.92,0,0,1,.26-.12v0H8.31a.49.49,0,0,1-.49.4.5.5,0,0,1,0-1,.49.49,0,0,1,.49.4h2.24a.71.71,0,0,1,.58-.57v-.09a1.1,1.1,0,0,0-.29-.81,1.65,1.65,0,0,0-.41-.29,1,1,0,0,1-1.11.81,1.33,1.33,0,0,1-.7-.2c-.16-.09-.29-.19-.44-.26a.77.77,0,0,0-.35-.09.66.66,0,0,0-.51.25.93.93,0,0,1,.21-.59,1.25,1.25,0,0,1,.81-.43l0,0A1.23,1.23,0,0,1,7.33,7.73a1.48,1.48,0,0,1,.06-.38,1.67,1.67,0,0,0,1,.48l.81.06h.06A1.62,1.62,0,0,1,9.84,8a1,1,0,0,1,.36.28,1.42,1.42,0,0,1,.26.91,1.57,1.57,0,0,1,.47.37,1.14,1.14,0,0,1,.18.29h0V8.34a.49.49,0,0,1-.4-.49.5.5,0,1,1,1,0,.5.5,0,0,1-.4.49v2.3a.64.64,0,0,1,.55.57H12a1.07,1.07,0,0,0,.83-.29,1.28,1.28,0,0,0,.26-.41,1.09,1.09,0,0,1-.83-1.06,1.5,1.5,0,0,1,.22-.76c.09-.16.18-.31.25-.45a.83.83,0,0,0,.09-.35.58.58,0,0,0-.29-.52,1.19,1.19,0,0,1,.63.22,1.25,1.25,0,0,1,.44.8v0h0a1.21,1.21,0,0,1,1.16-1,.59.59,0,0,1,.32.06c-.27.14-.39.57-.43,1.07l0,.62s0,.06,0,.09a2.43,2.43,0,0,1-.13.66,1,1,0,0,1-.24.37,1.14,1.14,0,0,1-.84.27h-.11a1.44,1.44,0,0,1-.34.47,1,1,0,0,1-.31.2H14.1a.49.49,0,0,1,.49-.4.5.5,0,0,1,0,1,.48.48,0,0,1-.49-.4H11.87a.68.68,0,0,1-.55.57v.13a1.08,1.08,0,0,0,.23.75,1.44,1.44,0,0,0,.46.34,1.06,1.06,0,0,1,1-.83,1.45,1.45,0,0,1,.67.17c.16.08.3.17.43.25a.84.84,0,0,0,.41.14.62.62,0,0,0,.54-.27,1.19,1.19,0,0,1-.14.48,1.16,1.16,0,0,1-1,.57v0a1.22,1.22,0,0,1,1.09,1.16,1,1,0,0,1-.08.38,1.65,1.65,0,0,0-1-.49l-.81-.05h-.1a1.44,1.44,0,0,1-.55-.14,1,1,0,0,1-.35-.3A1.5,1.5,0,0,1,12,13.37Z"/><path class="cls-2" d="M35.27,9.15a.41.41,0,0,1,0,.82c-.24,0-1.18,0-2.36,0v7.25c0,.67.24,1,.72,1a1.05,1.05,0,0,0,1-1c0-.31.19-.46.41-.46a.36.36,0,0,1,.34.38,2,2,0,0,1-2.19,1.79,1.84,1.84,0,0,1-2-2V9.92c-1.18,0-1.52,0-1.76,0a.41.41,0,0,1,0-.82c1.69,0,2.19-.26,2.48-1.81.27-1.33.34-1.54.65-1.54s.31.26.31.7V9.17C34.11,9.15,35.08,9.15,35.27,9.15Z"/><path class="cls-2" d="M44.14,8.79c2.15,0,3,1.52,3,3.57v5.52c1.18,0,1.33,0,1.57,0a.41.41,0,0,1,.36.44.38.38,0,0,1-.36.41,14.74,14.74,0,0,0-2.36-.12h-.1a14.8,14.8,0,0,0-2.36.12.38.38,0,0,1-.36-.41.41.41,0,0,1,.36-.44c.24,0,.39,0,1.57,0V11.53c0-1.3-.39-1.83-1.45-1.83-1.64,0-3.35,2.12-3.35,4.56v3.61c1.18,0,1.3,0,1.54,0a.39.39,0,0,1,.36.44.37.37,0,0,1-.36.41,14.25,14.25,0,0,0-2.34-.12h-.1a14.76,14.76,0,0,0-2.36.12.38.38,0,0,1-.36-.41.41.41,0,0,1,.36-.44c.24,0,.38,0,1.54,0v-14A15.27,15.27,0,0,0,37.39,4,.41.41,0,0,1,37,3.53a.38.38,0,0,1,.36-.41c.24,0,.38,0,1.54,0,.38,0,1.13-.1,1.35-.1a.39.39,0,0,1,.36.43v8A4.19,4.19,0,0,1,44.14,8.79Z"/><path class="cls-2" d="M51.71,13.89c0,2.89,1,4.32,2.77,4.32a2.83,2.83,0,0,0,2.89-2c.07-.17.17-.39.39-.39a.36.36,0,0,1,.38.36,1.62,1.62,0,0,1-.09.46A4,4,0,0,1,54.19,19c-2.1,0-4.41-1.9-4.41-5.13,0-3.06,2.14-5.11,4.43-5.11A3.67,3.67,0,0,1,58,13H51.73C51.71,13.27,51.71,13.58,51.71,13.89Zm4.41-1.74a2.91,2.91,0,0,0,.15-.82,1.68,1.68,0,0,0-1.83-1.78c-1.16,0-2.22.48-2.58,2.6Z"/><path class="cls-3" d="M67.33,9.56c-1.23,0-1.88.51-1.88,1.4,0,.7.63,1.13,1.81,1.45l1.18.34c2,.51,2.89,1.47,2.89,3.16,0,1.93-1.81,3.16-4.07,3.16s-4.07-1.35-4.07-2.72a1.15,1.15,0,0,1,1.21-1.28,1.14,1.14,0,0,1,.41,2.19,3.16,3.16,0,0,0,2.53.94c1.2,0,2-.58,2-1.56,0-.8-1-1.28-2.24-1.62l-1-.29c-1.73-.48-2.6-1.52-2.6-3,0-2.17,2-3,3.76-3s3.49.75,3.49,2.17a1.17,1.17,0,0,1-1.18,1.3,1.08,1.08,0,0,1-1.08-1.09,1.17,1.17,0,0,1,.63-1A2.53,2.53,0,0,0,67.33,9.56Z"/><path class="cls-3" d="M77.74,19a5,5,0,0,1-5.16-5.13,5.16,5.16,0,0,1,10.32,0A5,5,0,0,1,77.74,19Zm0-9.47c-1.62,0-2,.75-2,4.34s.41,4.34,2,4.34,2-.75,2-4.34S79.33,9.56,77.74,9.56Z"/><path class="cls-3" d="M94.77,6.76a1.26,1.26,0,0,1-1.26-1.28,1.38,1.38,0,0,1,1-1.23,2.85,2.85,0,0,0-2.87-1.82,3,3,0,0,0-3.06,3V9.17c.71,0,1.19,0,2,0a.41.41,0,0,1,0,.82c-.24,0-.84,0-2,0v8c1.16,0,1.3,0,1.54,0a.39.39,0,0,1,.36.44.37.37,0,0,1-.36.41,14.56,14.56,0,0,0-2.34-.12h-1.3a14.84,14.84,0,0,0-2.36.12.38.38,0,0,1-.36-.41.41.41,0,0,1,.36-.44c.24,0,.39,0,1.54,0v-8c-1.16,0-1.71,0-2,0a.41.41,0,0,1,0-.82l2,0v-2c0-3.4,2.64-5.47,5.89-5.47A4.3,4.3,0,0,1,96,5.33,1.29,1.29,0,0,1,94.77,6.76Z"/><path class="cls-3" d="M98.14,17.85a.39.39,0,0,1,.36.44.37.37,0,0,1-.36.41,14.6,14.6,0,0,0-2.34-.12H94.5a14.79,14.79,0,0,0-2.36.12.38.38,0,0,1-.36-.41.41.41,0,0,1,.36-.44c.24,0,.39,0,1.54,0v-8c-.67,0-.67-.78,0-.78,2,0,1.83-.78,2.56-.78a.39.39,0,0,1,.36.44v9.08C97.75,17.87,97.9,17.85,98.14,17.85Z"/><path class="cls-3" d="M102.62,11.16a1.25,1.25,0,0,1-1.29,1.29,1.23,1.23,0,0,1-1.24-1.29c0-1.48,1.86-2.31,3.28-2.31,3,0,4.24,1.36,4.24,4.52v3.9c0,.36,0,.62.24.62.38,0,.45-.36.79-.66a.47.47,0,0,1,.69.07.59.59,0,0,1-.17.79,3.3,3.3,0,0,1-2.19.74c-1.59,0-2-.62-2.21-1.38a4.58,4.58,0,0,1-3.09,1.43,2.14,2.14,0,0,1-2.33-2.19c0-2.26,2.67-3.19,5.4-3.19V11.16c0-1.14-.38-1.59-1.36-1.59a1.7,1.7,0,0,0-1.38.52A1.16,1.16,0,0,1,102.62,11.16Zm2.12,3c-1.69,0-2.52.79-2.52,2.19a1,1,0,0,0,.93,1.17,2.59,2.59,0,0,0,1.59-.86Z"/><path class="cls-2" d="M120.05,8.93c2.12,0,3,1.5,3,3.52V17.9c1.17,0,1.31,0,1.55,0a.4.4,0,0,1,.36.43.38.38,0,0,1-.36.41,14.53,14.53,0,0,0-2.33-.12h-.1a14.52,14.52,0,0,0-2.33.12.38.38,0,0,1-.36-.41.4.4,0,0,1,.36-.43c.24,0,.38,0,1.55,0V11.65c0-1.29-.38-1.81-1.43-1.81-1.62,0-3.31,2.09-3.31,4.5V17.9c1.17,0,1.29,0,1.52,0a.39.39,0,0,1,.36.43.36.36,0,0,1-.36.41,14,14,0,0,0-2.31-.12h-.09a14.52,14.52,0,0,0-2.33.12.38.38,0,0,1-.36-.41.4.4,0,0,1,.36-.43c.24,0,.38,0,1.52,0V4.1a14.88,14.88,0,0,0-1.52.07.4.4,0,0,1-.36-.43.38.38,0,0,1,.36-.4c.24,0,.38,0,1.52,0,.38,0,1.12-.1,1.33-.1a.39.39,0,0,1,.36.43v7.92A4.14,4.14,0,0,1,120.05,8.93Z"/><path class="cls-2" d="M130.14,19c-2.47,0-4.52-2-4.52-5.07s2-5,4.52-5,4.5,2,4.5,5S132.59,19,130.14,19Zm0-9.35c-1.81,0-2.62,1.14-2.62,4.28s.81,4.28,2.62,4.28,2.59-1.12,2.59-4.28S131.92,9.69,130.14,9.69Z"/><path class="cls-2" d="M141.51,9.29a.41.41,0,0,1,0,.81c-.24,0-1.16,0-2.33,0v7.16c0,.67.24,1,.71,1a1,1,0,0,0,1-1c0-.31.19-.45.4-.45a.35.35,0,0,1,.34.38,1.94,1.94,0,0,1-2.17,1.76,1.82,1.82,0,0,1-2-2V10.05c-1.16,0-1.5,0-1.74,0a.41.41,0,0,1,0-.81c1.66,0,2.16-.26,2.45-1.79.26-1.31.33-1.52.64-1.52s.31.26.31.69V9.31C140.37,9.29,141.32,9.29,141.51,9.29Z"/><path class="cls-2" d="M144.89,14c0,2.86,1,4.26,2.74,4.26a2.8,2.8,0,0,0,2.86-2c.07-.17.17-.38.38-.38a.36.36,0,0,1,.38.36,1.55,1.55,0,0,1-.09.45A3.93,3.93,0,0,1,147.34,19C145.27,19,143,17.17,143,14c0-3,2.12-5,4.38-5a3.62,3.62,0,0,1,3.78,4.16h-6.23C144.89,13.36,144.89,13.67,144.89,14Zm4.36-1.71a2.94,2.94,0,0,0,.14-.81,1.66,1.66,0,0,0-1.81-1.76c-1.14,0-2.19.48-2.55,2.57Z"/><path class="cls-2" d="M157.34,17.88a.39.39,0,0,1,.36.43.36.36,0,0,1-.36.41,14,14,0,0,0-2.31-.12h-.1a14.55,14.55,0,0,0-2.33.12.38.38,0,0,1-.36-.41.4.4,0,0,1,.36-.43c.24,0,.38,0,1.52,0V4.1a15,15,0,0,0-1.52.07.4.4,0,0,1-.36-.43.38.38,0,0,1,.36-.4c.24,0,.38,0,1.52,0,.38,0,1.12-.1,1.33-.1a.39.39,0,0,1,.36.43V17.9C157,17.9,157.1,17.88,157.34,17.88Z"/></g></g></svg>