<?xml version="1.0" encoding="utf-8"?>
<!-- Generator: Adobe Illustrator 22.1.0, SVG Export Plug-In . SVG Version: 6.00 Build 0)  -->
<svg version="1.1" id="Слой_1" xmlns="http://www.w3.org/2000/svg" xmlns:xlink="http://www.w3.org/1999/xlink" x="0px" y="0px"
	 viewBox="0 0 43.6 60.6" style="enable-background:new 0 0 43.6 60.6;" xml:space="preserve">
<style type="text/css">
	.st0{fill:#6E3D50;}
	.st1{fill:#FFFFFF;}
</style>
<title>marker_tsh</title>
<g>
	<g id="Слой_2_1_">
		<g id="Artwork">
			<path class="st0" d="M43.6,21.8c0,9.6-5,16.9-10.1,23.6c-2.7,3.6-9.6,12.4-9.6,12.4l-2.1,2.7l-2.1-2.7c0,0-6.9-8.9-9.6-12.4
				C5,38.8,0,31.5,0,21.8C0,9.8,9.7,0,21.7,0c12,0,21.8,9.7,21.8,21.7C43.6,21.8,43.6,21.8,43.6,21.8z"/>
			<path class="st1" d="M21.8,36.2c-1.1,0-2.1-0.1-3.2-0.4c-0.9,0.5-1.8,0.7-2.7,0.8c3.8,1.6,8,1.6,11.8,0c-1-0.1-1.9-0.4-2.8-0.8
				C23.9,36.1,22.8,36.2,21.8,36.2z"/>
			<path class="st1" d="M35.7,16.6c-0.1,1-0.4,1.9-0.8,2.8c0.5,2.1,0.5,4.2,0,6.3c0.5,0.9,0.7,1.8,0.8,2.8
				C37.3,24.7,37.3,20.4,35.7,16.6z"/>
			<path class="st1" d="M21.8,9c1,0,2,0.1,2.9,0.3c0.8-0.5,1.8-0.8,2.7-0.9C23.8,7,19.7,7,16.1,8.5c0.9,0.1,1.8,0.4,2.7,0.9
				C19.8,9.1,20.8,9,21.8,9z"/>
			<path class="st1" d="M8.3,22.6c0-1,0.1-2,0.3-3c-0.5-0.8-0.8-1.7-0.9-2.7c-1.5,3.7-1.5,7.8,0,11.4c0.1-1,0.4-1.9,0.9-2.8
				C8.4,24.6,8.3,23.6,8.3,22.6z"/>
			<path class="st1" d="M31.3,22.5c3.4-1.9,4.7-6.2,2.8-9.7c-1.2-2.2-3.6-3.6-6.2-3.7c-2.6,0-5,1.4-6.2,3.7
				c-1.8-3.4-6.1-4.7-9.5-2.9c-2.3,1.2-3.7,3.7-3.7,6.3c0,2.6,1.4,5,3.7,6.2c-3.4,1.9-4.7,6.2-2.8,9.7c1.2,2.2,3.6,3.6,6.2,3.7
				c2.6,0,5-1.4,6.2-3.7c1.8,3.4,6.1,4.7,9.5,2.8c2.3-1.2,3.7-3.6,3.7-6.3C35,26.2,33.6,23.8,31.3,22.5z M27.9,34.1
				c-2.6,0-4.7-1.8-5.2-4.3h-1.9c-0.6,2.9-3.4,4.7-6.3,4.2s-4.7-3.4-4.2-6.3c0.4-2.2,2.2-3.8,4.3-4.2v-1.9c-2.9-0.5-4.9-3.2-4.4-6.1
				c0.5-2.9,3.2-4.9,6.1-4.4c2.3,0.4,4.1,2.1,4.4,4.4h1.9c0.5-2.9,3.3-4.8,6.2-4.3s4.8,3.3,4.3,6.2c-0.4,2.2-2.1,3.9-4.2,4.3v2
				c2.9,0.6,4.8,3.4,4.2,6.3C32.6,32.3,30.4,34.1,27.9,34.1z"/>
			<path class="st1" d="M32.6,16.3c0-2.6-2.1-4.7-4.7-4.8c-2.3,0-4.3,1.6-4.7,3.9h0.9c0.5-2.1,2.6-3.3,4.6-2.8s3.3,2.6,2.8,4.6
				c-0.3,1.4-1.4,2.4-2.7,2.8V21C31.1,20.5,32.6,18.5,32.6,16.3z"/>
			<path class="st1" d="M15.5,11.5c-2.6,0-4.8,2.2-4.7,4.8c0,2.3,1.6,4.2,3.9,4.6v-0.9c-2.1-0.5-3.4-2.5-2.9-4.6s2.5-3.4,4.6-2.9
				c1.4,0.3,2.6,1.4,2.9,2.9h0.9C19.8,13.2,17.8,11.5,15.5,11.5z"/>
			<path class="st1" d="M10.8,28.8c0,2.6,2.1,4.7,4.7,4.8c2.3,0,4.2-1.6,4.7-3.8h-0.9c-0.6,2-2.7,3.2-4.7,2.7
				c-2-0.6-3.2-2.7-2.7-4.7c0.4-1.3,1.5-2.4,2.8-2.7v-0.9C12.4,24.5,10.8,26.5,10.8,28.8z"/>
			<path class="st1" d="M31.7,28.8c0,2.1-1.7,3.9-3.8,3.9c-1.8,0-3.3-1.2-3.7-2.9h-0.9c0.6,2.6,3.1,4.2,5.7,3.6
				c2.6-0.6,4.2-3.1,3.6-5.7c-0.4-1.8-1.8-3.2-3.6-3.6V25C30.6,25.5,31.8,27,31.7,28.8z"/>
			<path class="st1" d="M27.6,28.9c0,0.3,0.2,0.5,0.5,0.5c0.3,0,0.5-0.2,0.5-0.5c0-0.3-0.2-0.5-0.5-0.5V16.8c0.3,0,0.5-0.2,0.5-0.5
				s-0.2-0.5-0.5-0.5c-0.3,0-0.5,0.2-0.5,0.5H16c0-0.3-0.2-0.5-0.5-0.5c-0.3,0-0.5,0.2-0.5,0.5c0,0.3,0.2,0.5,0.5,0.5h0v11.7h0
				c-0.3,0-0.5,0.2-0.5,0.5s0.2,0.5,0.5,0.5c0.3,0,0.5-0.2,0.5-0.5H27.6z M22.8,25.4c-0.3-0.1-0.5-0.3-0.7-0.5
				C22,24.8,22,24.7,22,24.6h0l0,0.6l0,1.4c0.3,0.1,0.5,0.3,0.5,0.7c0,0.4-0.3,0.7-0.7,0.7c-0.4,0-0.7-0.3-0.7-0.7c0,0,0,0,0,0
				c0-0.3,0.2-0.6,0.5-0.7l0-1.4l0-1.7c-0.4-0.1-0.7-0.4-0.8-0.8h-0.2c-0.4,0-0.7,0.1-1,0.3c-0.2,0.2-0.4,0.4-0.5,0.7
				c0.7,0.1,1.1,0.7,1.1,1.4c0,0.3-0.1,0.6-0.2,0.9c-0.1,0.2-0.2,0.4-0.3,0.6c-0.1,0.2-0.2,0.4-0.2,0.6c0,0.3,0.1,0.5,0.3,0.7
				c-0.2,0-0.5-0.1-0.7-0.2c-0.4-0.3-0.7-0.7-0.7-1.1h0c-0.2,0.8-0.8,1.3-1.6,1.4c-0.2,0-0.3,0-0.5-0.1c0.6-0.6,0.7-1.2,0.7-2.3
				c0-0.1,0-0.2,0-0.2c0-0.3,0.1-0.6,0.2-0.9c0.1-0.2,0.2-0.3,0.4-0.5c0.3-0.2,0.6-0.3,1-0.3c0.1,0,0.1,0,0.2,0
				c0.1-0.3,0.3-0.5,0.5-0.7c0.1-0.1,0.2-0.1,0.4-0.2v0l-0.6,0l-1.4,0c-0.1,0.3-0.3,0.5-0.7,0.5c-0.4,0-0.7-0.3-0.7-0.7
				c0-0.4,0.3-0.7,0.7-0.7c0.3,0,0.6,0.2,0.7,0.5l1.2,0l1.8,0c0.1-0.4,0.4-0.7,0.8-0.8v-0.1c0-0.4-0.1-0.8-0.4-1.1
				c-0.2-0.2-0.3-0.3-0.5-0.4c-0.2,0.7-0.8,1.2-1.5,1.1c-0.3,0-0.7-0.1-0.9-0.3c-0.2-0.1-0.4-0.3-0.6-0.4c-0.1-0.1-0.3-0.1-0.5-0.1
				c-0.3,0-0.5,0.1-0.7,0.3c0-0.3,0.1-0.6,0.3-0.8c0.3-0.3,0.7-0.5,1.1-0.6c0,0,0,0,0.1,0c-0.8-0.1-1.4-0.8-1.4-1.6
				c0-0.2,0-0.3,0.1-0.5c0.4,0.4,0.8,0.6,1.3,0.7l1.1,0.1l0.1,0c0.3,0,0.5,0.1,0.8,0.2c0.2,0.1,0.4,0.2,0.5,0.4
				c0.3,0.4,0.4,0.8,0.4,1.2c0.2,0.1,0.5,0.3,0.6,0.5c0.1,0.1,0.2,0.2,0.2,0.4h0l0-0.8l0-1.3c-0.3-0.1-0.5-0.3-0.5-0.7
				c0-0.4,0.3-0.7,0.7-0.7c0.4,0,0.7,0.3,0.7,0.7c0,0,0,0,0,0c0,0.3-0.2,0.6-0.5,0.7l0,1.3l0,1.8c0.4,0.1,0.7,0.4,0.7,0.8h0.1
				c0.4,0,0.8-0.1,1.1-0.4c0.1-0.2,0.3-0.3,0.3-0.5c-0.7-0.2-1.1-0.8-1.1-1.4c0-0.4,0.1-0.7,0.3-1c0.1-0.2,0.2-0.4,0.3-0.6
				c0.1-0.1,0.1-0.3,0.1-0.5c0-0.3-0.1-0.6-0.4-0.7c0.3,0,0.6,0.1,0.8,0.3c0.3,0.3,0.5,0.7,0.6,1.1l0,0h0c0.1-0.8,0.8-1.4,1.6-1.4
				c0.2,0,0.3,0,0.4,0.1c-0.4,0.2-0.5,0.8-0.6,1.4l-0.1,0.8c0,0,0,0.1,0,0.1c0,0.3-0.1,0.6-0.2,0.9c-0.1,0.2-0.2,0.4-0.3,0.5
				c-0.3,0.3-0.7,0.4-1.1,0.4h-0.1c-0.1,0.2-0.3,0.5-0.5,0.6c-0.1,0.1-0.3,0.2-0.4,0.3v0l0.9,0l1.1,0c0.1-0.3,0.3-0.5,0.7-0.5
				c0.4,0,0.7,0.3,0.7,0.7c0,0.4-0.3,0.7-0.7,0.7c-0.3,0-0.6-0.2-0.7-0.5l-1.4,0l-1.6,0c-0.1,0.4-0.4,0.7-0.7,0.8l0,0.2
				c0,0.4,0.1,0.7,0.3,1c0.2,0.2,0.4,0.3,0.6,0.5c0.1-0.7,0.7-1.1,1.4-1.1c0.3,0,0.6,0.1,0.9,0.2c0.2,0.1,0.4,0.2,0.6,0.3
				c0.2,0.1,0.4,0.2,0.6,0.2c0.3,0,0.6-0.1,0.7-0.4c0,0.2-0.1,0.5-0.2,0.7c-0.3,0.5-0.8,0.7-1.3,0.8v0c0.8,0.1,1.4,0.7,1.5,1.6
				c0,0.2,0,0.4-0.1,0.5c-0.4-0.4-0.9-0.6-1.4-0.7l-1.1-0.1l-0.1,0c-0.3,0-0.5-0.1-0.7-0.2c-0.2-0.1-0.3-0.2-0.5-0.4
				C22.9,26.2,22.8,25.8,22.8,25.4z"/>
		</g>
	</g>
</g>
</svg>
